<mxfile host="app.diagrams.net" agent="Mozilla/5.0 (Windows NT 10.0; Win64; x64) AppleWebKit/537.36 (KHTML, like Gecko) Chrome/138.0.0.0 Safari/537.36" version="28.0.6">
  <diagram name="PÃ¡gina-1" id="-vqyVmEt9A4R_uhnUwHa">
    <mxGraphModel dx="1426" dy="743" grid="1" gridSize="10" guides="1" tooltips="1" connect="1" arrows="1" fold="1" page="1" pageScale="1" pageWidth="827" pageHeight="1169" math="0" shadow="0">
      <root>
        <mxCell id="0" />
        <mxCell id="1" parent="0" />
        <mxCell id="ivlKE8OcMFCifcCctVEV-1" value="" style="points=[];aspect=fixed;html=1;align=center;shadow=0;dashed=0;fillColor=#FF6A00;strokeColor=none;shape=mxgraph.alibaba_cloud.user;" parent="1" vertex="1">
          <mxGeometry x="305" y="40" width="60" height="60" as="geometry" />
        </mxCell>
        <mxCell id="ivlKE8OcMFCifcCctVEV-2" value="VPC" style="points=[[0,0],[0.25,0],[0.5,0],[0.75,0],[1,0],[1,0.25],[1,0.5],[1,0.75],[1,1],[0.75,1],[0.5,1],[0.25,1],[0,1],[0,0.75],[0,0.5],[0,0.25]];outlineConnect=0;gradientColor=none;html=1;whiteSpace=wrap;fontSize=12;fontStyle=0;container=1;pointerEvents=0;collapsible=0;recursiveResize=0;shape=mxgraph.aws4.group;grIcon=mxgraph.aws4.group_vpc2;strokeColor=#8C4FFF;fillColor=none;verticalAlign=top;align=left;spacingLeft=30;fontColor=#AAB7B8;dashed=0;" parent="1" vertex="1">
          <mxGeometry x="90" y="140" width="490" height="300" as="geometry" />
        </mxCell>
        <mxCell id="ivlKE8OcMFCifcCctVEV-49" value="Public subnet" style="points=[[0,0],[0.25,0],[0.5,0],[0.75,0],[1,0],[1,0.25],[1,0.5],[1,0.75],[1,1],[0.75,1],[0.5,1],[0.25,1],[0,1],[0,0.75],[0,0.5],[0,0.25]];outlineConnect=0;gradientColor=none;html=1;whiteSpace=wrap;fontSize=12;fontStyle=0;container=1;pointerEvents=0;collapsible=0;recursiveResize=0;shape=mxgraph.aws4.group;grIcon=mxgraph.aws4.group_security_group;grStroke=0;strokeColor=#7AA116;fillColor=#F2F6E8;verticalAlign=top;align=left;spacingLeft=30;fontColor=#248814;dashed=0;" parent="ivlKE8OcMFCifcCctVEV-2" vertex="1">
          <mxGeometry x="30" y="50" width="280" height="170" as="geometry" />
        </mxCell>
        <mxCell id="ivlKE8OcMFCifcCctVEV-58" value="(&lt;div&gt;&lt;span style=&quot;background-color: transparent; color: light-dark(rgb(35, 47, 62), rgb(189, 199, 212));&quot;&gt;Elastic Load Balancing&lt;/span&gt;&lt;/div&gt;" style="sketch=0;outlineConnect=0;fontColor=#232F3E;gradientColor=none;strokeColor=#ffffff;fillColor=#232F3E;dashed=0;verticalLabelPosition=middle;verticalAlign=bottom;align=center;html=1;whiteSpace=wrap;fontSize=10;fontStyle=1;spacing=3;shape=mxgraph.aws4.productIcon;prIcon=mxgraph.aws4.elastic_load_balancing;" parent="ivlKE8OcMFCifcCctVEV-49" vertex="1">
          <mxGeometry x="25" y="40" width="80" height="110" as="geometry" />
        </mxCell>
        <mxCell id="ivlKE8OcMFCifcCctVEV-54" value="AWS Elastic Beanstalk" style="sketch=0;outlineConnect=0;fontColor=#232F3E;gradientColor=none;strokeColor=#ffffff;fillColor=#232F3E;dashed=0;verticalLabelPosition=middle;verticalAlign=bottom;align=center;html=1;whiteSpace=wrap;fontSize=10;fontStyle=1;spacing=3;shape=mxgraph.aws4.productIcon;prIcon=mxgraph.aws4.elastic_beanstalk;" parent="ivlKE8OcMFCifcCctVEV-49" vertex="1">
          <mxGeometry x="175" y="40" width="80" height="110" as="geometry" />
        </mxCell>
        <mxCell id="ivlKE8OcMFCifcCctVEV-63" style="edgeStyle=orthogonalEdgeStyle;rounded=0;orthogonalLoop=1;jettySize=auto;html=1;" parent="ivlKE8OcMFCifcCctVEV-2" source="ivlKE8OcMFCifcCctVEV-55" target="ivlKE8OcMFCifcCctVEV-58" edge="1">
          <mxGeometry relative="1" as="geometry" />
        </mxCell>
        <mxCell id="ivlKE8OcMFCifcCctVEV-55" value="Security group ELB" style="fillColor=none;strokeColor=#DD3522;verticalAlign=top;fontStyle=0;fontColor=#DD3522;whiteSpace=wrap;html=1;" parent="ivlKE8OcMFCifcCctVEV-2" vertex="1">
          <mxGeometry x="30" y="250" width="130" height="30" as="geometry" />
        </mxCell>
        <mxCell id="ivlKE8OcMFCifcCctVEV-64" style="edgeStyle=orthogonalEdgeStyle;rounded=0;orthogonalLoop=1;jettySize=auto;html=1;" parent="ivlKE8OcMFCifcCctVEV-2" source="ivlKE8OcMFCifcCctVEV-56" target="ivlKE8OcMFCifcCctVEV-54" edge="1">
          <mxGeometry relative="1" as="geometry" />
        </mxCell>
        <mxCell id="ivlKE8OcMFCifcCctVEV-56" value="Security group EC2" style="fillColor=none;strokeColor=#DD3522;verticalAlign=top;fontStyle=0;fontColor=#DD3522;whiteSpace=wrap;html=1;" parent="ivlKE8OcMFCifcCctVEV-2" vertex="1">
          <mxGeometry x="180" y="250" width="130" height="30" as="geometry" />
        </mxCell>
        <mxCell id="ivlKE8OcMFCifcCctVEV-48" value="Private subnet" style="points=[[0,0],[0.25,0],[0.5,0],[0.75,0],[1,0],[1,0.25],[1,0.5],[1,0.75],[1,1],[0.75,1],[0.5,1],[0.25,1],[0,1],[0,0.75],[0,0.5],[0,0.25]];outlineConnect=0;gradientColor=none;html=1;whiteSpace=wrap;fontSize=12;fontStyle=0;container=1;pointerEvents=0;collapsible=0;recursiveResize=0;shape=mxgraph.aws4.group;grIcon=mxgraph.aws4.group_security_group;grStroke=0;strokeColor=#00A4A6;fillColor=#E6F6F7;verticalAlign=top;align=left;spacingLeft=30;fontColor=#147EBA;dashed=0;" parent="ivlKE8OcMFCifcCctVEV-2" vertex="1">
          <mxGeometry x="330" y="50" width="130" height="170" as="geometry" />
        </mxCell>
        <mxCell id="ivlKE8OcMFCifcCctVEV-65" value="Amazon RDS" style="sketch=0;outlineConnect=0;fontColor=#232F3E;gradientColor=none;strokeColor=#ffffff;fillColor=#232F3E;dashed=0;verticalLabelPosition=middle;verticalAlign=bottom;align=center;html=1;whiteSpace=wrap;fontSize=10;fontStyle=1;spacing=3;shape=mxgraph.aws4.productIcon;prIcon=mxgraph.aws4.rds;" parent="ivlKE8OcMFCifcCctVEV-48" vertex="1">
          <mxGeometry x="25" y="40" width="80" height="100" as="geometry" />
        </mxCell>
        <mxCell id="ivlKE8OcMFCifcCctVEV-67" style="edgeStyle=orthogonalEdgeStyle;rounded=0;orthogonalLoop=1;jettySize=auto;html=1;" parent="ivlKE8OcMFCifcCctVEV-2" source="ivlKE8OcMFCifcCctVEV-66" target="ivlKE8OcMFCifcCctVEV-65" edge="1">
          <mxGeometry relative="1" as="geometry" />
        </mxCell>
        <mxCell id="ivlKE8OcMFCifcCctVEV-66" value="Security group RDS" style="fillColor=none;strokeColor=#DD3522;verticalAlign=top;fontStyle=0;fontColor=#DD3522;whiteSpace=wrap;html=1;" parent="ivlKE8OcMFCifcCctVEV-2" vertex="1">
          <mxGeometry x="330" y="250" width="130" height="30" as="geometry" />
        </mxCell>
        <mxCell id="tjU6hbLSbvW12c2wVyWg-5" style="edgeStyle=orthogonalEdgeStyle;rounded=0;orthogonalLoop=1;jettySize=auto;html=1;" edge="1" parent="1" source="ivlKE8OcMFCifcCctVEV-71" target="ivlKE8OcMFCifcCctVEV-65">
          <mxGeometry relative="1" as="geometry">
            <Array as="points">
              <mxPoint x="610" y="400" />
              <mxPoint x="610" y="280" />
            </Array>
          </mxGeometry>
        </mxCell>
        <mxCell id="ivlKE8OcMFCifcCctVEV-71" value="Amazon SNS" style="sketch=0;outlineConnect=0;fontColor=#232F3E;gradientColor=none;strokeColor=#ffffff;fillColor=#232F3E;dashed=0;verticalLabelPosition=middle;verticalAlign=bottom;align=center;html=1;whiteSpace=wrap;fontSize=10;fontStyle=1;spacing=3;shape=mxgraph.aws4.productIcon;prIcon=mxgraph.aws4.sns;" parent="1" vertex="1">
          <mxGeometry x="640" y="350" width="80" height="100" as="geometry" />
        </mxCell>
        <mxCell id="tjU6hbLSbvW12c2wVyWg-3" style="edgeStyle=orthogonalEdgeStyle;rounded=0;orthogonalLoop=1;jettySize=auto;html=1;" edge="1" parent="1" source="ivlKE8OcMFCifcCctVEV-72" target="ivlKE8OcMFCifcCctVEV-65">
          <mxGeometry relative="1" as="geometry">
            <Array as="points">
              <mxPoint x="610" y="163" />
              <mxPoint x="610" y="280" />
            </Array>
          </mxGeometry>
        </mxCell>
        <mxCell id="ivlKE8OcMFCifcCctVEV-72" value="Amazon CloudWatch" style="sketch=0;outlineConnect=0;fontColor=#232F3E;gradientColor=none;strokeColor=#ffffff;fillColor=#232F3E;dashed=0;verticalLabelPosition=middle;verticalAlign=bottom;align=center;html=1;whiteSpace=wrap;fontSize=10;fontStyle=1;spacing=3;shape=mxgraph.aws4.productIcon;prIcon=mxgraph.aws4.cloudwatch;" parent="1" vertex="1">
          <mxGeometry x="640" y="107.5" width="80" height="110" as="geometry" />
        </mxCell>
        <mxCell id="tjU6hbLSbvW12c2wVyWg-4" style="edgeStyle=orthogonalEdgeStyle;rounded=0;orthogonalLoop=1;jettySize=auto;html=1;" edge="1" parent="1" source="ivlKE8OcMFCifcCctVEV-73" target="ivlKE8OcMFCifcCctVEV-65">
          <mxGeometry relative="1" as="geometry" />
        </mxCell>
        <mxCell id="ivlKE8OcMFCifcCctVEV-73" value="AWS Secrets Manager" style="sketch=0;outlineConnect=0;fontColor=#232F3E;gradientColor=none;strokeColor=#ffffff;fillColor=#232F3E;dashed=0;verticalLabelPosition=middle;verticalAlign=bottom;align=center;html=1;whiteSpace=wrap;fontSize=10;fontStyle=1;spacing=3;shape=mxgraph.aws4.productIcon;prIcon=mxgraph.aws4.secrets_manager;" parent="1" vertex="1">
          <mxGeometry x="640" y="225" width="80" height="110" as="geometry" />
        </mxCell>
        <mxCell id="tjU6hbLSbvW12c2wVyWg-7" style="edgeStyle=orthogonalEdgeStyle;rounded=0;orthogonalLoop=1;jettySize=auto;html=1;" edge="1" parent="1" source="ivlKE8OcMFCifcCctVEV-1" target="ivlKE8OcMFCifcCctVEV-54">
          <mxGeometry relative="1" as="geometry" />
        </mxCell>
      </root>
    </mxGraphModel>
  </diagram>
</mxfile>
